<svg width="25" height="25" viewBox="0 0 25 25" fill="none" xmlns="http://www.w3.org/2000/svg">
<g opacity="0.8">
<path d="M19.4308 6.14136C18.1561 5.55646 16.7892 5.12553 15.3599 4.87872C15.3339 4.87396 15.3079 4.88586 15.2945 4.90967C15.1187 5.22235 14.9239 5.63026 14.7876 5.95088C13.2503 5.72074 11.721 5.72074 10.2153 5.95088C10.0789 5.62314 9.87707 5.22235 9.70048 4.90967C9.68707 4.88666 9.66107 4.87475 9.63504 4.87872C8.20659 5.12474 6.83963 5.55567 5.56411 6.14136C5.55307 6.14612 5.54361 6.15407 5.53732 6.16438C2.94449 10.038 2.23421 13.8164 2.58265 17.548C2.58423 17.5663 2.59447 17.5837 2.60867 17.5948C4.31934 18.8511 5.97642 19.6138 7.60273 20.1193C7.62876 20.1273 7.65634 20.1177 7.6729 20.0963C8.05761 19.5709 8.40054 19.017 8.69456 18.4345C8.71192 18.4003 8.69535 18.3599 8.65989 18.3464C8.11594 18.14 7.598 17.8885 7.09977 17.6028C7.06037 17.5798 7.05721 17.5234 7.09347 17.4964C7.19831 17.4178 7.30318 17.3361 7.4033 17.2536C7.42141 17.2385 7.44665 17.2353 7.46794 17.2448C10.7411 18.7392 14.2846 18.7392 17.5191 17.2448C17.5404 17.2345 17.5657 17.2377 17.5846 17.2528C17.6847 17.3353 17.7895 17.4178 17.8952 17.4964C17.9314 17.5234 17.9291 17.5798 17.8897 17.6028C17.3914 17.894 16.8735 18.14 16.3288 18.3456C16.2933 18.3591 16.2775 18.4003 16.2949 18.4345C16.5952 19.0162 16.9381 19.5701 17.3157 20.0955C17.3315 20.1177 17.3599 20.1273 17.3859 20.1193C19.0201 19.6138 20.6772 18.8511 22.3879 17.5948C22.4028 17.5837 22.4123 17.5671 22.4139 17.5488C22.8309 13.2347 21.7154 9.48725 19.4568 6.16517C19.4513 6.15407 19.4419 6.14612 19.4308 6.14136ZM9.18335 15.2759C8.19792 15.2759 7.38594 14.3712 7.38594 13.2601C7.38594 12.149 8.18217 11.2443 9.18335 11.2443C10.1924 11.2443 10.9965 12.157 10.9807 13.2601C10.9807 14.3712 10.1845 15.2759 9.18335 15.2759ZM15.829 15.2759C14.8435 15.2759 14.0316 14.3712 14.0316 13.2601C14.0316 12.149 14.8278 11.2443 15.829 11.2443C16.838 11.2443 17.6421 12.157 17.6264 13.2601C17.6264 14.3712 16.838 15.2759 15.829 15.2759Z" fill="black"/>
</g>
</svg>
