<svg width="181" height="36" viewBox="0 0 181 36" fill="none" xmlns="http://www.w3.org/2000/svg">
<path d="M31.9906 0.000732422H39.8925V35.3436H31.9906V0.000732422Z" fill="url(#paint0_linear_116_538)"/>
<path d="M58.0814 35.899C55.33 35.899 52.9142 35.3604 50.8339 34.2833C48.7871 33.1725 47.2101 31.641 46.1028 29.6888C44.9955 27.7365 44.4419 25.4644 44.4419 22.8726C44.4419 20.2808 44.9955 18.0088 46.1028 16.0565C47.2101 14.1042 48.7871 12.5895 50.8339 11.5124C52.9142 10.4016 55.33 9.84625 58.0814 9.84625C60.8328 9.84625 63.2487 10.4016 65.329 11.5124C67.4094 12.5895 69.0032 14.1042 70.1104 16.0565C71.2177 18.0088 71.7713 20.2808 71.7713 22.8726C71.7713 25.4644 71.2177 27.7365 70.1104 29.6888C69.0032 31.641 67.4094 33.1725 65.329 34.2833C63.2487 35.3604 60.8328 35.899 58.0814 35.899ZM58.0814 29.1839C59.8262 29.1839 61.2355 28.5948 62.3092 27.4167C63.3829 26.2386 63.9198 24.7239 63.9198 22.8726C63.9198 21.0213 63.3829 19.5066 62.3092 18.3285C61.2355 17.1504 59.8262 16.5614 58.0814 16.5614C56.3702 16.5614 54.9777 17.1504 53.904 18.3285C52.8303 19.5066 52.2934 21.0213 52.2934 22.8726C52.2934 24.7239 52.8303 26.2386 53.904 27.4167C54.9777 28.5948 56.3702 29.1839 58.0814 29.1839Z" fill="url(#paint1_linear_116_538)"/>
<path d="M88.6556 35.899C85.8707 35.899 83.438 35.3773 81.3577 34.3338C79.3109 33.2567 77.7172 31.742 76.5763 29.7897C75.4691 27.8375 74.9154 25.5486 74.9154 22.9231C74.9154 20.3313 75.4858 18.0593 76.6267 16.107C77.7675 14.1211 79.3613 12.5895 81.408 11.5124C83.4548 10.4016 85.8204 9.84625 88.5046 9.84625C90.3501 9.84625 92.1117 10.1828 93.7893 10.856C95.467 11.4956 96.9602 12.4549 98.2688 13.734L93.89 18.5305C92.4807 17.2178 90.8198 16.5614 88.9073 16.5614C87.0954 16.5614 85.619 17.1504 84.4782 18.3285C83.3374 19.473 82.767 20.9877 82.767 22.8726C82.767 24.7576 83.3206 26.2891 84.4279 27.4672C85.5687 28.6116 87.0618 29.1839 88.9073 29.1839C90.9541 29.1839 92.6989 28.4602 94.1417 27.0128L98.6211 31.7588C95.8361 34.5189 92.5143 35.899 88.6556 35.899Z" fill="url(#paint2_linear_116_538)"/>
<path d="M127.59 35.3436H117.826L110.226 25.4476V35.3436H102.375V0.000732422H110.226V19.8432L117.121 10.4016H126.131L117.172 22.2163L127.59 35.3436Z" fill="url(#paint3_linear_116_538)"/>
<path d="M139.366 36C134.97 36 131.145 34.8892 127.891 32.6677L130.91 27.2148C132.118 27.9553 133.511 28.5275 135.088 28.9314C136.698 29.3353 138.292 29.5373 139.869 29.5373C142.05 29.5373 143.141 28.9482 143.141 27.7701C143.141 27.1643 142.839 26.7099 142.235 26.4069C141.631 26.104 140.624 25.902 139.215 25.801C136.061 25.6327 133.544 24.8417 131.665 23.428C129.82 22.0143 128.897 20.163 128.897 17.8741C128.897 15.3833 129.904 13.4142 131.917 11.9668C133.93 10.4858 136.648 9.74527 140.071 9.74527C142.017 9.74527 143.862 9.98089 145.607 10.4521C147.385 10.9234 148.912 11.5797 150.187 12.4212L147.117 17.7227C145.238 16.6455 143.007 16.107 140.423 16.107C137.873 16.107 136.598 16.7129 136.598 17.9246C136.598 18.4295 136.849 18.8166 137.353 19.0859C137.89 19.3552 138.779 19.5571 140.02 19.6918C143.577 19.961 146.278 20.7689 148.123 22.1153C150.002 23.4617 150.942 25.3466 150.942 27.7701C150.942 30.3283 149.919 32.3479 147.872 33.8289C145.825 35.2763 142.99 36 139.366 36Z" fill="url(#paint4_linear_116_538)"/>
<path d="M167.049 35.899C164.298 35.899 161.882 35.3604 159.801 34.2833C157.755 33.1725 156.178 31.641 155.07 29.6888C153.963 27.7365 153.409 25.4644 153.409 22.8726C153.409 20.2808 153.963 18.0088 155.07 16.0565C156.178 14.1042 157.755 12.5895 159.801 11.5124C161.882 10.4016 164.298 9.84625 167.049 9.84625C169.8 9.84625 172.216 10.4016 174.296 11.5124C176.377 12.5895 177.971 14.1042 179.078 16.0565C180.185 18.0088 180.739 20.2808 180.739 22.8726C180.739 25.4644 180.185 27.7365 179.078 29.6888C177.971 31.641 176.377 33.1725 174.296 34.2833C172.216 35.3604 169.8 35.899 167.049 35.899ZM167.049 29.1839C168.794 29.1839 170.203 28.5948 171.277 27.4167C172.35 26.2386 172.887 24.7239 172.887 22.8726C172.887 21.0213 172.35 19.5066 171.277 18.3285C170.203 17.1504 168.794 16.5614 167.049 16.5614C165.338 16.5614 163.945 17.1504 162.871 18.3285C161.798 19.5066 161.261 21.0213 161.261 22.8726C161.261 24.7239 161.798 26.2386 162.871 27.4167C163.945 28.5948 165.338 29.1839 167.049 29.1839Z" fill="url(#paint5_linear_116_538)"/>
<path fill-rule="evenodd" clip-rule="evenodd" d="M21.876 11.5691C20.0572 10.4577 17.9858 9.90194 15.6618 9.90194C12.5968 9.90194 10.0202 10.8618 7.93194 12.7816V3.96597C7.93194 1.77562 6.15631 0 3.96597 0C1.77563 0 0 1.77563 0 3.96597V31.6395C0 33.6965 1.66755 35.3641 3.72458 35.3641H3.84778C5.59348 35.3641 7.08446 34.1045 7.3762 32.3834C9.49811 34.7073 12.26 35.8693 15.6618 35.8693C17.9858 35.8693 20.0572 35.3304 21.876 34.2526C23.6948 33.1412 25.1094 31.6087 26.1198 29.6553C27.1303 27.6682 27.6355 25.4116 27.6355 22.8856C27.6355 20.3596 27.1303 18.1199 26.1198 16.1664C25.1094 14.1793 23.6948 12.6469 21.876 11.5691ZM19.22 31.0209C20.478 30.5974 21.0952 30.708 21.343 31.0503C22.087 32.0784 20.7007 33.4014 19.6576 34.1012C18.6824 34.7556 17.3907 35.2712 15.8837 35.2555C14.3768 35.2594 13.0812 34.7335 12.1008 34.0715C11.0524 33.3634 9.65593 32.0294 10.3922 31.0071C10.6373 30.6668 11.2537 30.561 12.515 30.9945C13.6748 31.393 14.8325 31.5491 15.8696 31.5694C16.9066 31.5573 18.0632 31.4103 19.22 31.0209ZM16.5046 28.3136C15.0593 29.7589 12.7159 29.7589 11.2705 28.3136C9.82521 26.8682 9.82521 24.5249 11.2705 23.0795C12.7159 21.6342 15.0593 21.6342 16.5046 23.0795C17.9499 24.5249 17.9499 26.8682 16.5046 28.3136ZM17.5589 28.8221C17.3808 28.644 17.2374 28.4444 17.1287 28.2316C17.8494 27.3673 18.12 26.2545 17.9404 25.2037C18.8472 24.6146 20.0727 24.7177 20.868 25.513C21.7818 26.4268 21.7818 27.9083 20.868 28.8221C19.9542 29.7359 18.4726 29.7359 17.5589 28.8221Z" fill="url(#paint6_linear_116_538)"/>
<defs>
<linearGradient id="paint0_linear_116_538" x1="76.8964" y1="0.000732422" x2="76.8964" y2="36" gradientUnits="userSpaceOnUse">
<stop stop-color="#0352E4"/>
<stop offset="1" stop-color="#38B6FF"/>
</linearGradient>
<linearGradient id="paint1_linear_116_538" x1="76.8964" y1="0.000732422" x2="76.8964" y2="36" gradientUnits="userSpaceOnUse">
<stop stop-color="#0352E4"/>
<stop offset="1" stop-color="#38B6FF"/>
</linearGradient>
<linearGradient id="paint2_linear_116_538" x1="76.8964" y1="0.000732422" x2="76.8964" y2="36" gradientUnits="userSpaceOnUse">
<stop stop-color="#0352E4"/>
<stop offset="1" stop-color="#38B6FF"/>
</linearGradient>
<linearGradient id="paint3_linear_116_538" x1="76.8964" y1="0.000732422" x2="76.8964" y2="36" gradientUnits="userSpaceOnUse">
<stop stop-color="#0352E4"/>
<stop offset="1" stop-color="#38B6FF"/>
</linearGradient>
<linearGradient id="paint4_linear_116_538" x1="76.8964" y1="0.000732422" x2="76.8964" y2="36" gradientUnits="userSpaceOnUse">
<stop stop-color="#0352E4"/>
<stop offset="1" stop-color="#38B6FF"/>
</linearGradient>
<linearGradient id="paint5_linear_116_538" x1="76.8964" y1="0.000732422" x2="76.8964" y2="36" gradientUnits="userSpaceOnUse">
<stop stop-color="#0352E4"/>
<stop offset="1" stop-color="#38B6FF"/>
</linearGradient>
<linearGradient id="paint6_linear_116_538" x1="8.34291" y1="0" x2="8.34291" y2="35.8693" gradientUnits="userSpaceOnUse">
<stop stop-color="#0352E4"/>
<stop offset="1" stop-color="#38B6FF"/>
</linearGradient>
</defs>
</svg>
