<svg width="350" height="104" viewBox="0 0 350 104" fill="none" xmlns="http://www.w3.org/2000/svg">
<path d="M15.9297 83.4648C18.4201 93.4421 28.0244 99.9429 38.2126 98.5475C128.926 86.1231 220.936 86.1268 311.649 98.5512C321.825 99.9449 331.425 93.4634 333.931 83.503L344.115 43.0323C347.259 30.5396 338.876 18.079 326.12 16.2825C225.868 2.16383 124.098 2.16864 23.846 16.2873C11.1027 18.082 2.71404 30.5189 5.8306 43.0047L15.9297 83.4648Z" fill="url(#paint0_linear_72_432)"/>
<path d="M38.5518 101.024C27.0995 102.593 16.3035 95.2855 13.5041 84.0703L3.40502 43.6102C-0.0711567 29.6836 9.28537 15.8132 23.4973 13.8118C123.981 -0.339493 225.985 -0.34433 326.469 13.8069C340.696 15.8107 350.046 29.7086 346.539 43.6424L336.356 84.113C333.538 95.3096 322.748 102.595 311.31 101.028C220.822 88.6345 129.04 88.6309 38.5518 101.024Z" stroke="#0453E5" stroke-opacity="0.1" stroke-width="5"/>
<defs>
<linearGradient id="paint0_linear_72_432" x1="175" y1="101" x2="175" y2="-5" gradientUnits="userSpaceOnUse">
<stop stop-color="#0453E5"/>
<stop offset="1" stop-color="#38B6FF"/>
</linearGradient>
</defs>
</svg>
