<svg width="206" height="64" viewBox="0 0 206 64" fill="none" xmlns="http://www.w3.org/2000/svg">
<path d="M12.1258 13.99C13.5349 8.30925 19.002 4.60619 24.8002 5.40532V5.40532C76.6569 12.5525 129.264 12.5504 181.121 5.40322V5.40322C186.912 4.60505 192.376 8.29716 193.795 13.9685L199.681 37.5095C201.456 44.6042 196.696 51.6739 189.456 52.7001V52.7001C132.105 60.8277 73.8756 60.8249 16.5251 52.6974V52.6974C9.29168 51.6722 4.52913 44.6159 6.28798 37.5251L12.1258 13.99Z" fill="url(#paint0_linear_7_74)"/>
<path d="M202.107 36.903L196.22 13.362C194.492 6.45194 187.834 1.95427 180.779 2.92663C129.149 10.0426 76.7717 10.0447 25.1415 2.92873C18.0772 1.95509 11.4161 6.46681 9.69931 13.3882L3.86151 36.9233C1.74573 45.453 7.47464 53.9397 16.1743 55.1726C73.7575 63.3332 132.223 63.3359 189.806 55.1754C198.516 53.941 204.241 45.437 202.107 36.903Z" stroke="#0453E5" stroke-opacity="0.1" stroke-width="5"/>
<defs>
<linearGradient id="paint0_linear_7_74" x1="103" y1="4" x2="103" y2="64.9524" gradientUnits="userSpaceOnUse">
<stop stop-color="#0453E5"/>
<stop offset="1" stop-color="#38B6FF"/>
</linearGradient>
</defs>
</svg>
