<svg width="24" height="24" viewBox="0 0 24 24" fill="none" xmlns="http://www.w3.org/2000/svg">
<path fill-rule="evenodd" clip-rule="evenodd" d="M3 11.75C3 11.3358 3.33579 11 3.75 11L19.7496 11C20.1638 11 20.4996 11.3358 20.4996 11.75C20.4996 12.1642 20.1638 12.5 19.7496 12.5H3.75C3.33579 12.5 3 12.1642 3 11.75ZM6.28307 18.75C6.28307 18.3358 6.61886 18 7.03307 18L19.75 18C20.1642 18 20.5 18.3358 20.5 18.75C20.5 19.1642 20.1642 19.5 19.75 19.5L7.03307 19.5C6.61886 19.5 6.28307 19.1642 6.28307 18.75ZM11.9719 4.75C11.9719 4.33579 12.3077 4 12.7219 4L19.75 4C20.1642 4 20.5 4.33579 20.5 4.75C20.5 5.16421 20.1642 5.5 19.75 5.5L12.7219 5.5C12.3077 5.5 11.9719 5.16421 11.9719 4.75Z" fill="black"/>
</svg>
