<svg width="25" height="25" viewBox="0 0 25 25" fill="none" xmlns="http://www.w3.org/2000/svg">
<g opacity="0.8">
<path fill-rule="evenodd" clip-rule="evenodd" d="M5.94875 6.17704C6.59972 6.70725 6.83518 6.66539 8.05402 6.58168L19.536 5.88403C19.7853 5.88403 19.5776 5.63288 19.4945 5.60497L17.5831 4.22363C17.223 3.94457 16.7244 3.6097 15.7964 3.69342L4.68837 4.51664C4.2867 4.5585 4.2036 4.7678 4.36981 4.92128L5.94875 6.17704ZM6.64127 8.86996V21.0369C6.64127 21.6927 6.95984 21.9299 7.69391 21.888L20.3116 21.1485C21.0457 21.1067 21.1288 20.6602 21.1288 20.13V8.04673C21.1288 7.51652 20.9211 7.22351 20.4778 7.26537L7.29224 8.04673C6.80748 8.08859 6.64127 8.33974 6.64127 8.86996ZM19.0928 9.52574C19.1759 9.88852 19.0928 10.2652 18.7327 10.3071L18.1233 10.4327V19.4184C17.597 19.6974 17.1122 19.8649 16.6967 19.8649C16.0457 19.8649 15.8795 19.6556 15.3947 19.0416L11.4197 12.7489V18.8323L12.6801 19.1114C12.6801 19.1114 12.6801 19.8509 11.669 19.8509L8.87119 20.0183C8.78809 19.8509 8.87119 19.4463 9.1482 19.3626L9.88227 19.1533V11.1164L8.87119 11.0327C8.78809 10.6699 8.99585 10.1397 9.56371 10.0978L12.5693 9.88852L16.7105 16.2511V10.628L15.6579 10.5024C15.5748 10.056 15.9072 9.72108 16.3089 9.67923L19.0928 9.52574ZM3.76039 3.40041L15.3255 2.54928C16.7382 2.4237 17.1122 2.50742 17.9986 3.16321L21.6828 5.77241C22.2922 6.2189 22.5 6.34448 22.5 6.83283V21.1625C22.5 22.0555 22.1814 22.5857 21.0457 22.6694L7.62466 23.4926C6.76593 23.5345 6.36427 23.4089 5.92105 22.8368L3.19252 19.2788C2.70776 18.6231 2.5 18.1347 2.5 17.5626V4.82361C2.5 4.0841 2.83241 3.48412 3.76039 3.40041Z" fill="black"/>
</g>
</svg>
