<svg width="24" height="23" viewBox="0 0 24 23" fill="none" xmlns="http://www.w3.org/2000/svg">
<path fill-rule="evenodd" clip-rule="evenodd" d="M7.83555 3.27559C9.14631 -0.758531 14.8535 -0.758531 16.1643 3.27559C16.5497 4.46167 17.655 5.26471 18.9021 5.26471C23.1438 5.26471 24.9074 10.6926 21.4758 13.1858C20.4669 13.9188 20.0447 15.2182 20.4301 16.4043C21.7408 20.4384 17.1236 23.793 13.692 21.2998C12.683 20.5667 11.3168 20.5667 10.3079 21.2998C6.87624 23.793 2.25902 20.4384 3.56978 16.4043C3.95516 15.2182 3.53298 13.9188 2.52404 13.1858C-0.907588 10.6926 0.856037 5.26471 5.09776 5.26471C6.34488 5.26471 7.45017 4.46167 7.83555 3.27559ZM14.7102 6.64541C14.5773 6.25309 14.1516 6.04279 13.7593 6.17568C13.3669 6.30857 13.1566 6.73434 13.2895 7.12666C13.7206 8.39931 14.9433 9.23366 16.2923 9.23366C16.7066 9.23366 17.0423 8.89787 17.0423 8.48366C17.0423 8.06945 16.7066 7.73366 16.2923 7.73366C15.5529 7.73366 14.9245 7.27803 14.7102 6.64541Z" fill="#B1B1B1"/>
</svg>
