<svg width="25" height="25" viewBox="0 0 25 25" fill="none" xmlns="http://www.w3.org/2000/svg">
<g opacity="0.8">
<path d="M20.4525 8.41998C20.4647 8.5963 20.4647 8.77261 20.4647 8.95055C20.4647 14.3724 16.3371 20.6255 8.78966 20.6255V20.6223C6.56013 20.6255 4.3769 19.9869 2.5 18.7828C2.82419 18.8218 3.15001 18.8413 3.47664 18.8421C5.32429 18.8437 7.11913 18.2238 8.57272 17.0822C6.81688 17.0489 5.27717 15.904 4.73928 14.2327C5.35436 14.3513 5.98812 14.3269 6.59181 14.162C4.67753 13.7753 3.30033 12.0934 3.30033 10.1401C3.30033 10.1222 3.30033 10.1051 3.30033 10.0881C3.87071 10.4058 4.50934 10.5821 5.1626 10.6016C3.35964 9.39662 2.80388 6.99808 3.89265 5.1228C5.97593 7.68628 9.04966 9.24468 12.3493 9.40962C12.0186 7.98447 12.4703 6.49108 13.5364 5.48925C15.189 3.93572 17.7882 4.01535 19.3418 5.66719C20.2607 5.486 21.1415 5.14881 21.9475 4.67105C21.6412 5.62088 21.0001 6.4277 20.1437 6.9404C20.957 6.84452 21.7517 6.62677 22.5 6.29445C21.9491 7.11996 21.2552 7.83903 20.4525 8.41998Z" fill="black"/>
</g>
</svg>
